<svg width="400" height="250" viewBox="0 0 400 250" fill="none" xmlns="http://www.w3.org/2000/svg">
<defs>
<linearGradient id="grad2" x1="0%" y1="0%" x2="100%" y2="100%">
<stop offset="0%" style="stop-color:#f093fb;stop-opacity:1" />
<stop offset="100%" style="stop-color:#f5576c;stop-opacity:1" />
</linearGradient>
</defs>
<rect width="400" height="250" fill="url(#grad2)"/>
<rect x="20" y="20" width="360" height="210" rx="10" fill="rgba(255,255,255,0.1)" stroke="rgba(255,255,255,0.3)" stroke-width="2"/>
<rect x="40" y="50" width="320" height="30" rx="4" fill="rgba(255,255,255,0.3)"/>
<text x="200" y="70" font-family="Arial, sans-serif" font-size="14" font-weight="bold" fill="white" text-anchor="middle">REPORTE EMPRESARIAL</text>
<rect x="60" y="100" width="100" height="8" rx="4" fill="rgba(255,255,255,0.6)"/>
<rect x="60" y="120" width="150" height="8" rx="4" fill="rgba(255,255,255,0.4)"/>
<rect x="60" y="140" width="120" height="8" rx="4" fill="rgba(255,255,255,0.6)"/>
<rect x="60" y="160" width="180" height="8" rx="4" fill="rgba(255,255,255,0.4)"/>
<rect x="250" y="100" width="100" height="80" rx="8" fill="rgba(255,255,255,0.2)"/>
<circle cx="300" cy="130" r="15" fill="#feca57"/>
<text x="300" y="135" font-family="Arial, sans-serif" font-size="16" font-weight="bold" fill="white" text-anchor="middle">PDF</text>
<text x="300" y="155" font-family="Arial, sans-serif" font-size="10" fill="rgba(255,255,255,0.8)" text-anchor="middle">TCPDF</text>
<rect x="150" y="200" width="40" height="20" rx="10" fill="#48dbfb"/>
<text x="170" y="213" font-family="Arial, sans-serif" font-size="10" fill="white" text-anchor="middle">PHP</text>
<rect x="200" y="200" width="50" height="20" rx="10" fill="#00d2d3"/>
<text x="225" y="213" font-family="Arial, sans-serif" font-size="10" fill="white" text-anchor="middle">MySQL</text>
</svg>