<svg width="400" height="250" viewBox="0 0 400 250" fill="none" xmlns="http://www.w3.org/2000/svg">
<defs>
<linearGradient id="grad1" x1="0%" y1="0%" x2="100%" y2="100%">
<stop offset="0%" style="stop-color:#667eea;stop-opacity:1" />
<stop offset="100%" style="stop-color:#764ba2;stop-opacity:1" />
</linearGradient>
</defs>
<rect width="400" height="250" fill="url(#grad1)"/>
<rect x="20" y="20" width="360" height="210" rx="10" fill="rgba(255,255,255,0.1)" stroke="rgba(255,255,255,0.3)" stroke-width="2"/>
<circle cx="50" cy="50" r="8" fill="#ff6b6b"/>
<circle cx="70" cy="50" r="8" fill="#feca57"/>
<circle cx="90" cy="50" r="8" fill="#48dbfb"/>
<rect x="40" y="80" width="80" height="8" rx="4" fill="rgba(255,255,255,0.6)"/>
<rect x="40" y="100" width="120" height="8" rx="4" fill="rgba(255,255,255,0.4)"/>
<rect x="40" y="120" width="100" height="8" rx="4" fill="rgba(255,255,255,0.6)"/>
<rect x="200" y="80" width="160" height="120" rx="8" fill="rgba(255,255,255,0.2)"/>
<text x="200" y="125" font-family="Arial, sans-serif" font-size="16" font-weight="bold" fill="white">SGA Gestión</text>
<text x="200" y="145" font-family="Arial, sans-serif" font-size="12" fill="rgba(255,255,255,0.8)">Sistema de Gestión</text>
<text x="200" y="160" font-family="Arial, sans-serif" font-size="12" fill="rgba(255,255,255,0.8)">Empresarial</text>
<rect x="200" y="170" width="60" height="20" rx="10" fill="#48dbfb"/>
<text x="230" y="183" font-family="Arial, sans-serif" font-size="10" fill="white" text-anchor="middle">Laravel</text>
<rect x="270" y="170" width="50" height="20" rx="10" fill="#ff6b6b"/>
<text x="295" y="183" font-family="Arial, sans-serif" font-size="10" fill="white" text-anchor="middle">React</text>
</svg>